<svg height="511pt" viewBox="1 0 511.99875 511" width="511pt" xmlns="http://www.w3.org/2000/svg"><path d="m481.273438 304.84375-45.789063-59.574219 23.757813-18.257812 45.789062 59.574219zm0 0" fill="#dc9e00"/><path d="m233.398438 5.746094 53.617187 46.742187-19.691406 22.585938-53.617188-46.738281zm0 0" fill="#eebf00"/><path d="m122.179688 67.53125-28.996094-7.488281 15.40625-59.542969 28.992187 7.488281zm0 0" fill="#eebf00"/><path d="m363.714844 483.121094-28.207032-10.097656 33.488282-93.628907 28.203125 10.09375zm0 0" fill="#dc9e00"/><path d="m40.324219 177.84375-10.09375-28.207031 93.585937-33.515625 10.09375 28.207031zm0 0" fill="#eebf00"/><path d="m241 172.589844h29.960938v84.734375h-29.960938zm0 0" fill="#eebf00"/><path d="m192.429688 305.910156h84.734374v29.960938h-84.734374zm0 0" fill="#dc9e00"/><path d="m113.882812 299.707031h29.960938v84.734375h-29.960938zm0 0" fill="#eebf00"/><path d="m177.503906 65.339844 29.84375 2.632812-8.589844 97.34375-29.84375-2.632812zm0 0" fill="#eebf00"/><path d="m314.996094 462.285156-79.175782-25.25 9.101563-28.558594 79.175781 25.253907zm0 0" fill="#dc9e00"/><path d="m76.285156 277.484375-25.25-79.160156 28.554688-9.101563 25.253906 79.164063zm0 0" fill="#eebf00"/><path d="m446.109375 335.859375-99.394531-3.644531-20.378906-70.734375 28.789062-8.308594 14.382812 49.898437 77.710938 2.855469zm0 0" fill="#dc9e00"/><path d="m201.910156 449.644531-27.53125-11.820312 25.46875-59.292969 27.53125 11.820312zm0 0" fill="#dc9e00"/><path d="m187.808594 250.390625-62.675782-20.304687 9.246094-28.5 62.675782 20.304687zm0 0" fill="#eebf00"/><path d="m20.664062 167.03125-16.882812-74.875 29.230469-6.582031 16.882812 74.875zm0 0" fill="#eebf00"/><path d="m448.449219 418.851562-6.378907-29.261718 63.550782-13.851563 6.378906 29.273438zm0 0" fill="#dc9e00"/><path d="m421.191406 509.570312-74.871094-16.882812 6.582032-29.230469 74.875 16.882813zm0 0" fill="#dc9e00"/><path d="m436.136719 437.4375c-49.734375 49.734375-115.050781 74.402344-180.066407 74.402344-65.316406 0-130.632812-24.667969-180.070312-74.402344-101.332031-101.03125-101.332031-259.105469 0-360.140625 82.097656-82.390625 209.433594-101.441406 309.503906-42.117187l-15.28125 25.765624c-88.386718-52.132812-200.441406-35.179687-273.25 37.628907-69.414062 69.414062-83.523437 163.683593-46.738281 248.378906 5.992187-51.535156 36.851563-111.457031 89.285156-163.890625 71.609375-71.605469 163.289063-106.0625 222.914063-83.292969l-10.488282 27.863281c-48.238281-18.273437-128.53125 14.085938-191.453124 76.703126-67.710938 68.011718-97.375 154-71.90625 199.246093l231-231.003906 21.273437 21.273437-231.003906 231c45.242187 25.46875 131.230469-4.191406 199.246093-72.207031 62.621094-62.617187 94.675782-143.214843 76.402344-191.152343l28.164063-10.789063c22.46875 59.625-11.6875 151.308594-83.59375 223.214844-52.132813 52.132812-112.054688 83.292969-163.589844 89.285156 81.722656 35.492187 181.636719 19.703125 248.382813-47.039063 72.503906-72.507812 87.585937-184.863281 35.453124-272.949218l25.765626-15.28125c59.023437 100.074218 42.144531 227.410156-39.949219 309.503906zm0 0" fill="#ffda2d"/><path d="m436.136719 437.4375c-49.734375 49.734375-115.050781 74.402344-180.066407 74.402344-65.316406 0-130.632812-24.667969-180.070312-74.402344l254.375-254.074219 10.484375 10.484375-231.003906 231.003906c45.242187 25.46875 131.230469-4.191406 199.246093-72.207031 62.621094-62.617187 94.675782-143.214843 76.402344-191.152343l28.164063-10.789063c22.46875 59.625-11.6875 151.308594-83.59375 223.214844-52.132813 52.132812-112.054688 83.292969-163.589844 89.285156 81.722656 35.492187 181.636719 19.703125 248.382813-47.039063 72.503906-72.507812 87.585937-184.863281 35.453124-272.949218l25.765626-15.28125c59.023437 100.074218 42.144531 227.410156-39.949219 309.503906zm0 0" fill="#eebf00"/></svg>